<svg xmlns="http://www.w3.org/2000/svg" width="536.27" height="136" viewBox="0 0 536.27 136"><title>logo-full-white</title><path d="M152.07,10.82l-4.51,3.12a33.52,33.52,0,0,0,1.69-3.12,32.56,32.56,0,0,0,1.68-4.37c.22-.75.43-1.5.59-2.27a21.73,21.73,0,0,0,.37-2.37L152.05,0l-1.51,1h0C148.38,2.5,146.2,3.93,144,5.36s-4.37,2.85-6.57,4.26q-6.58,4.22-13.27,8.28c-4.44,2.73-8.92,5.41-13.44,8-1.13.66-2.27,1.28-3.4,1.93l-3.42,1.91c-2.28,1.26-4.57,2.53-6.84,3.83-.71.4-1.42.81-2.12,1.23,2-4.76-.48-9.5-.51-9.56l-.69-1.32-1.42,2.22a14.62,14.62,0,0,0-1.86-8L89.73,17,88,19.81A16.93,16.93,0,0,0,85.49,11l-.86-1.31-1.22,2.73A14.58,14.58,0,0,0,81.05,4l-.93-1.24L69.52,29.94h0l-.35.91h0c-.15.4-3.69,10,0,25.6,2.41,10.31,2.5,15.53,2.32,17.79-1.56-1.42-3.17-2.77-4.87-4-1-.76-2.08-1.5-3.17-2.18-.54-.35-1.11-.67-1.66-1s-1.12-.64-1.7-.92a26.34,26.34,0,0,0-7.39-2.51,18.26,18.26,0,0,0-4-.17,12.67,12.67,0,0,0-3.94,1,10.59,10.59,0,0,0-3.34,2.35,13.16,13.16,0,0,0-2.3,3.32A23.26,23.26,0,0,0,37,77.63c0,.26,0,.51-.08.77a67.52,67.52,0,0,0-6.49-5A8.37,8.37,0,0,0,32.74,68c0-2.26-1.08-4.41-3.29-6.37L28.74,61l-.66.67C26,63.8,25,66,25.2,68.27a7.28,7.28,0,0,0,.52,2.16l-1-.56v0l-.13,0c-1.08-.59-2.2-1.17-3.37-1.74A8.45,8.45,0,0,0,23,62.45c-.2-2.26-1.53-4.28-3.92-6l-.77-.55-.6.74c-1.85,2.29-2.59,4.59-2.19,6.82a7.24,7.24,0,0,0,1,2.47c-1.24-.5-2.53-1-3.86-1.45a8.64,8.64,0,0,0-4.72-4.27c-2.16-.69-4.53-.27-7.06,1.25L0,62l.44.84C1.83,65.4,3.65,67,5.85,67.49a6.62,6.62,0,0,0,1.56.18,9.32,9.32,0,0,0,4.52-1.3,76,76,0,0,1,7.4,3,7,7,0,0,0-2.08.8C15.3,71.34,14,73.4,13.51,76.3l-.18.93.93.22a11.88,11.88,0,0,0,2.8.36,7.24,7.24,0,0,0,4.3-1.29,8.22,8.22,0,0,0,3-4.52,66.64,66.64,0,0,1,5.79,3.66,7.65,7.65,0,0,0-3.84,1c-1.95,1.15-3.21,3.21-3.75,6.11l-.17.93.92.23a11.85,11.85,0,0,0,2.8.35A7.27,7.27,0,0,0,30.42,83a8.35,8.35,0,0,0,3.07-4.81c1.22,1,2.32,1.93,3.33,2.85,0,.16,0,.31,0,.47A34,34,0,0,0,37,85.39l.15,1.39L38.31,86l2.11-1.36a38.64,38.64,0,0,1,4.4,5.65l1.73-1a37.53,37.53,0,0,0-4.39-5.78l1.94-1.26a12.28,12.28,0,0,0,1.39.62,12.49,12.49,0,0,0,1.92.57,9.27,9.27,0,0,0,2.18.22C50.21,85.84,52,92,54.2,100.05c2.35,8.48,7.24,14.7,14.55,18.5a37.15,37.15,0,0,0,12.77,3.77V85.84H64.68l-2.67-4L64.69,78H81.52V61.82l4.06-3.48,3.74,3.49V78h16.07l3.48,4.06-3.49,3.75H89.32v33.3h0v9.62l9.46-7.37-.12,0h0c3.74.1,5.76,2.28,8.3,5,2.84,3.07,6.38,6.89,13.48,8.87A20.59,20.59,0,0,0,126,136c11.64,0,22.33-9,22.85-9.45l.91-.78-28.6-17.12L101.78,97.07h.69a15.54,15.54,0,0,0,8.07-2.19l1.28-.86-6.51-3h.39a16.57,16.57,0,0,0,11.64-4.56l1.08-1.16-5-.94a16.74,16.74,0,0,0,9.6-6.46l.86-1.33H119.7c5.67-2.75,8-8.87,8.11-9.17l.54-1.43-3.75.71a21.54,21.54,0,0,0,7.64-9.78c12.57-6.15,15.13-16.39,15.24-16.86l.39-1.65-5.5,2.28c6.59-6.22,7.84-15.14,7.9-15.6l.24-1.81-4.1,2.56a28.61,28.61,0,0,0,5.48-13.12Z" transform="translate(0)" fill="#fff"/><path d="M193.51,79.1h-6.59l2-1.58V94.43l-1.43-1.9,9.38,1.9v4.93H172.94V94.43l7.78-2.06-1.59,2.06V48.69L181,50.83l-8-1.9V44l16.2-.4h7.78a22.5,22.5,0,0,1,10.57,2.19,14.36,14.36,0,0,1,6.15,6,18.39,18.39,0,0,1,2,8.74,19,19,0,0,1-2.42,9.57,16.49,16.49,0,0,1-7.31,6.63Q201.05,79.11,193.51,79.1Zm1.91-28.51h-8.11l1.59-1.51V73.62l-2-1.58h6.67q5.88,0,9-3.06a11,11,0,0,0,3.1-8.22,10.37,10.37,0,0,0-2.58-7.47C201.36,51.49,198.8,50.59,195.42,50.59Z" transform="translate(0)" fill="#fff"/><path d="M219.8,99.36V94.43l6.59-1.75-.95,1.51V62.43l1.11,1.66-6.75-1.82V57.34l13-.63,1.27,7.62L232.82,64a33.38,33.38,0,0,1,7-5.75,14.6,14.6,0,0,1,7.51-2,19.41,19.41,0,0,1,5.32.8L252,70.69h-5.56l-1.11-8.5.87,1.9a6,6,0,0,0-1-.23,6.91,6.91,0,0,0-1.11-.08,9.82,9.82,0,0,0-5.28,1.62,18.78,18.78,0,0,0-4.65,4.25L235,67V94.19l-1.2-1.51,8.11,1.75v4.93Z" transform="translate(0)" fill="#fff"/><path d="M274.2,100.23a19.73,19.73,0,0,1-9.85-2.42,16.46,16.46,0,0,1-6.67-7.19A25.91,25.91,0,0,1,255.3,79a27.25,27.25,0,0,1,2.5-12.16A18.34,18.34,0,0,1,264.87,59a20.71,20.71,0,0,1,10.84-2.74,17.78,17.78,0,0,1,9.73,2.42A14.59,14.59,0,0,1,291,65.29a23.65,23.65,0,0,1,1.83,9.53c0,.79,0,1.58-.08,2.38a25.82,25.82,0,0,1-.32,2.62H262.92v-6h21.21L283,74.5a18.31,18.31,0,0,0-.67-5.72,8.21,8.21,0,0,0-2.58-4,7.37,7.37,0,0,0-4.85-1.51,8.23,8.23,0,0,0-5.6,1.91,10.88,10.88,0,0,0-3.17,5.16,25,25,0,0,0-1,7.38,24.37,24.37,0,0,0,1.2,8,11.4,11.4,0,0,0,3.73,5.44,10.15,10.15,0,0,0,6.43,2,20,20,0,0,0,6-1,30.91,30.91,0,0,0,6.75-3.18L292.54,94a36.44,36.44,0,0,1-9.21,4.65A29.08,29.08,0,0,1,274.2,100.23Z" transform="translate(0)" fill="#fff"/><path d="M295.16,118l.88-6.83c.79.1,1.52.18,2.18.24s1.28.08,1.87.08A10.5,10.5,0,0,0,306,110a12.22,12.22,0,0,0,3.9-4.65,60.61,60.61,0,0,0,3.29-8l-.4,3.26L297.71,62.51l1,.87-4.77-1V57.42l19-.63v4.92l-6.11,1.43.55-.87,10.65,31-2.23-.48,9.77-30.41.48,1-6-1V57.42l18.11-.63v4.92L333,63.22l1.35-.87L320.89,99.28a67.72,67.72,0,0,1-3.37,7.94,28.33,28.33,0,0,1-4,6,15.25,15.25,0,0,1-5.36,3.89,18.2,18.2,0,0,1-7.31,1.36A38.28,38.28,0,0,1,295.16,118Z" transform="translate(0)" fill="#fff"/><path d="M339.24,117.62V112.7l6.91-2.07-1.27,1.67V62.74l1.19,1.35-6.83-1.82V57.34l13-.63,1.12,6.91-1-.56A31.31,31.31,0,0,1,359.57,58a16.4,16.4,0,0,1,7.31-1.75,13.9,13.9,0,0,1,8.1,2.42,16.18,16.18,0,0,1,5.52,7.15,29.12,29.12,0,0,1,2,11.48A27.88,27.88,0,0,1,379.94,90a17.62,17.62,0,0,1-7.23,7.67,22,22,0,0,1-10.84,2.58,28.8,28.8,0,0,1-4.2-.32c-1.43-.21-2.94-.48-4.53-.79l1.27-1.19V112.3l-1.11-1.51,7.7,1.91v4.92ZM360.68,93.4q6,0,9-4.05t2.94-11.12a24.31,24.31,0,0,0-1.16-7.94,11.91,11.91,0,0,0-3.21-5.16,7.3,7.3,0,0,0-5-1.83,10.89,10.89,0,0,0-4.8,1.23,21.9,21.9,0,0,0-5.2,3.77l1.19-2.62V94.11l-1.19-1.9A27.32,27.32,0,0,0,360.68,93.4Z" transform="translate(0)" fill="#fff"/><path d="M408.89,56.23q9.21,0,14.33,5.52t5.13,15.69a27.24,27.24,0,0,1-2.51,12.15,18.34,18.34,0,0,1-7.14,7.86,21.39,21.39,0,0,1-11.16,2.78q-9.14,0-14.18-5.48t-5-15.73a27.66,27.66,0,0,1,2.46-12.15A18.3,18.3,0,0,1,397.85,59,21,21,0,0,1,408.89,56.23Zm-.48,6.83A8.53,8.53,0,0,0,400.83,67q-2.58,3.9-2.58,11.6t2.46,11.28A8.28,8.28,0,0,0,408,93.4a9.18,9.18,0,0,0,5.8-1.79,10.94,10.94,0,0,0,3.5-5.24,26.25,26.25,0,0,0,1.19-8.46q0-7.45-2.58-11.16A8.6,8.6,0,0,0,408.41,63.06Z" transform="translate(0)" fill="#fff"/><path d="M448.91,93.64l-.79-.88,6.35,1.67v4.93H433.75V94.43l6.35-1.67-.72.88V63.14l.64.72-6.27-1.59V57.34l15.16-.55ZM443.75,49.8a5.84,5.84,0,0,1-4.21-1.51A5.52,5.52,0,0,1,438,44.08a5.58,5.58,0,0,1,1.67-4.41,6.14,6.14,0,0,1,4.21-1.47,6,6,0,0,1,4.09,1.43A5.51,5.51,0,0,1,449.55,44a5.47,5.47,0,0,1-1.67,4.33A6,6,0,0,1,443.75,49.8Z" transform="translate(0)" fill="#fff"/><path d="M458.44,99.36V94.43l6.83-1.82L464.08,94V62.51l1.19,1.58-6.83-1.82V57.34l13-.63,1.27,7.7-1.27-.47a26,26,0,0,1,8.18-5.84,20.39,20.39,0,0,1,8.18-1.87,12.36,12.36,0,0,1,8.85,3.34q3.54,3.33,3.46,10.08V94l-1-1.42,6.6,1.82v4.93H485.44V94.43l6.36-1.67-1.19,1.51V71.72c0-2.81-.63-4.87-1.87-6.2a6.49,6.49,0,0,0-5-2,12.73,12.73,0,0,0-5.24,1.31,20.23,20.23,0,0,0-5.64,4l.71-1.51V94.27l-.95-1.51,6.11,1.67v4.93Z" transform="translate(0)" fill="#fff"/><path d="M524.28,100.23c-3.34,0-5.9-1-7.7-3.06s-2.7-5.09-2.7-9.17V62.19l1.35,1.35h-7.87V58.38l7.95-1.59-1.43,1.67V47.73l9.61-1.66V58.46l-1.12-1.35H534.6l-.15,6.43H522.37l1.12-1.35V86.73c0,2.27.39,3.92,1.19,4.92a4.07,4.07,0,0,0,3.41,1.51,10.23,10.23,0,0,0,2.94-.48c1.06-.31,2.2-.71,3.42-1.19l1.82,5.24A24.59,24.59,0,0,1,524.28,100.23Z" transform="translate(0)" fill="#fff"/></svg>